PathFileType	4	(X/Y/Z)																																																																																																																																																																																															
DataRate	CameraRate	NumFrames	NumMarkers	Units	OrigDataRate	OrigDataStartFrame	OrigNumFrames																																																																																																																																																																																										
100	100	4	64	     mm	100	348	397																																																																																																																																																																																										
Frame#	Time	LASI			RASI			LPSI			RPSI			RTH2			RTH3			RLFC			RMFC			LTH1			LTH2			LTH3			LLFC			LMFC			RTB1			RTB2			RTB3			RLMAL			RMMAL			LTB1			LTB2			LTB3			LLMAL			LMMAL			RCAL			RTOE			RMT5			LCAL			LTOE			LMT5			LACR			RACR			CLAV			C7			LASH			LPSH			RASH			RPSH			RUA1			RUA2			RUA3			RLEL			RMEL			LUA1			LUA2			LUA3			LLEL			LMEL			RFAsuperior			RFAradius			RFAulna			LFAsuperior			LFAradius			LFAulna			RTH1			RHJC			LHJC			RKJC			LKJC			RAJC			LAJC			RSJC			LSJC			REJC			LEJC		
		X1	Y1	Z1	X2	Y2	Z2	X3	Y3	Z3	X4	Y4	Z4	X5	Y5	Z5	X6	Y6	Z6	X7	Y7	Z7	X8	Y8	Z8	X9	Y9	Z9	X10	Y10	Z10	X11	Y11	Z11	X12	Y12	Z12	X13	Y13	Z13	X14	Y14	Z14	X15	Y15	Z15	X16	Y16	Z16	X17	Y17	Z17	X18	Y18	Z18	X19	Y19	Z19	X20	Y20	Z20	X21	Y21	Z21	X22	Y22	Z22	X23	Y23	Z23	X24	Y24	Z24	X25	Y25	Z25	X26	Y26	Z26	X27	Y27	Z27	X28	Y28	Z28	X29	Y29	Z29	X30	Y30	Z30	X31	Y31	Z31	X32	Y32	Z32	X33	Y33	Z33	X34	Y34	Z34	X35	Y35	Z35	X36	Y36	Z36	X37	Y37	Z37	X38	Y38	Z38	X39	Y39	Z39	X40	Y40	Z40	X41	Y41	Z41	X42	Y42	Z42	X43	Y43	Z43	X44	Y44	Z44	X45	Y45	Z45	X46	Y46	Z46	X47	Y47	Z47	X48	Y48	Z48	X49	Y49	Z49	X50	Y50	Z50	X51	Y51	Z51	X52	Y52	Z52	X53	Y53	Z53	X54	Y54	Z54	X55	Y55	Z55	X56	Y56	Z56	X57	Y57	Z57	X58	Y58	Z58	X59	Y59	Z59	X60	Y60	Z60	X61	Y61	Z61	X62	Y62	Z62	X63	Y63	Z63	X64	Y64	Z64
																																																																																																																																																																																																	
348	3.47	628.59363	1083.74719	-368.99628	374.5694	1076.06287	-368.026	558.34699	1126.12378	-531.78449	444.95096	1118.78931	-532.5224	340.21628	820.15747	-509.78506	333.70917	666.86182	-479.18957	334.88315	562.73474	-474.02686	450.1441	538.81683	-460.31952	689.85223	956.46509	-428.03903	658.53625	805.58801	-511.39004	674.47986	670.22766	-470.87817	671.63007	551.5296	-458.13196	562.79956	519.96606	-472.35068	374.27728	406.28812	-438.08588	318.3349	369.69357	-527.50964	379.55389	220.22833	-472.38644	331.90067	119.08457	-529.30261	421.35791	129.81535	-505.04987	640.13763	441.1257	-426.62546	689.61725	341.78101	-516.97095	648.41779	228.02148	-455.92978	680.42841	124.63301	-507.89859	593.56189	130.87952	-490.94278	389.03528	96.75681	-597.28742	374.07782	76.46287	-352.80643	287.83847	52.79414	-412.91568	619.06561	97.57692	-579.89221	645.64337	79.18495	-343.69699	735.48572	43.70482	-403.8811	631.17108	1577.39831	-502.9671	338.69775	1564.93494	-477.56085	457.5596	1529.39246	-417.82367	493.12317	1580.05591	-542.67163	644.50342	1544.76746	-441.36838	658.95807	1513.7583	-559.9292	327.74622	1527.15039	-423.56757	318.43585	1495.45984	-559.92096	241.84824	1466.6095	-536.70184	182.54216	1474.94397	-483.49713	98.88886	1416.74023	-507.38818	39.83916	1377.99182	-515.38806	79.27062	1319.26196	-466.97949	730.20459	1489.07678	-546.29871	806.59613	1496.15991	-500.73431	883.56165	1450.72742	-526.33044	954.89691	1431.34924	-517.78449	920.43195	1350.50024	-496.20877	-27.30055	1387.75317	-428.73486	-55.09206	1361.94263	-251.96674	-114.56278	1356.54993	-288.62253	1011.08362	1416.7207	-450.0625	1018.47638	1366.36231	-264.90012	1087.07068	1378.28979	-282.76623	305.76118	957.12923	-419.85217	411.50202	977.25579	-442.63407	586.59712	1001.39804	-452.05738	392.51363	550.77579	-467.17319	617.21481	535.74783	-465.24132	376.62929	124.44996	-517.17624	636.99515	127.75626	-499.42069	323.09103	1511.30512	-491.74426	651.73074	1529.26288	-500.64879	59.55489	1348.62689	-491.18378	937.66443	1390.92474	-506.99663
349	3.48	628.52344	1083.72095	-368.97119	374.54349	1076.04553	-367.97934	558.30035	1126.12952	-531.72693	444.94247	1118.77222	-532.4306	340.22342	820.1283	-509.77383	333.69775	666.8324	-479.09964	334.91953	562.82245	-474.08701	450.13208	538.81867	-460.31485	689.81561	956.49365	-427.98813	658.53656	805.58844	-511.39056	674.46594	670.24768	-470.79193	671.59912	551.54395	-458.10828	562.83234	520.06818	-472.14548	374.26196	406.28436	-438.086	318.25665	369.63534	-527.52893	379.50751	220.15643	-472.40234	331.93414	119.08941	-529.27191	421.36881	129.81142	-505.05646	640.11249	441.10821	-426.62134	689.61926	341.78793	-516.94702	648.35425	228.01885	-455.91257	680.43921	124.63926	-507.88037	593.53644	130.86299	-490.99289	389.03354	96.75835	-597.31574	374.05368	76.4343	-352.82971	287.88531	52.83382	-412.89002	619.0246	97.55283	-579.84778	645.61749	79.16366	-343.64081	735.45727	43.72521	-403.87729	631.08313	1577.40259	-503.02081	338.62634	1564.88684	-477.58609	457.51981	1529.43884	-417.79706	493.07803	1580.06018	-542.66766	644.46997	1544.75366	-441.32114	658.94464	1513.75964	-559.94727	327.69626	1527.12183	-423.58814	318.37985	1495.47839	-559.88648	241.81337	1466.60107	-536.6449	182.48457	1474.89331	-483.44394	98.87411	1416.6814	-507.28967	39.76167	1377.91541	-515.21478	79.25336	1319.24866	-466.84152	730.19043	1489.06079	-546.34772	806.56397	1496.17273	-500.7572	883.55042	1450.70789	-526.3786	954.8692	1431.34045	-517.81177	920.38562	1350.44959	-496.22305	-27.35181	1387.76807	-428.60452	-55.20702	1361.94824	-251.78273	-114.63888	1356.55994	-288.45984	1011.03192	1416.69165	-450.04456	1018.37952	1366.18872	-264.96109	1087.05212	1378.31873	-282.77582	305.70902	957.12848	-419.84426	411.45361	977.24987	-442.61211	586.55123	1001.37932	-452.01356	392.5258	550.82056	-467.20093	617.21573	535.80606	-465.12688	376.65147	124.45041	-517.16419	636.98782	127.75113	-499.43663	323.03806	1511.30011	-491.7373	651.70731	1529.25665	-500.6342	59.50751	1348.58203	-491.02815	937.62741	1390.89502	-507.01741
350	3.49	628.5116	1083.72571	-368.9147	374.50723	1076.04126	-367.92062	558.21527	1126.14819	-531.68073	444.90497	1118.76575	-532.4256	340.22211	820.12769	-509.77445	333.63632	666.83935	-479.13989	334.86148	562.73944	-473.93246	450.08969	538.82105	-460.30893	689.75641	956.47601	-427.9866	658.49676	805.58923	-511.34293	674.45013	670.25085	-470.7727	671.58881	551.55328	-458.10324	562.79688	519.95447	-472.26459	374.27328	406.28882	-437.99991	318.22708	369.65674	-527.47058	379.48505	220.19908	-472.3978	331.88315	119.05862	-529.31238	421.35788	129.81537	-505.04983	640.11243	441.10809	-426.62134	689.57861	341.78168	-516.93561	648.36243	228.0152	-455.91705	680.42566	124.63638	-507.89136	593.52466	130.87131	-490.98984	389.03351	96.75837	-597.3158	374.0621	76.4397	-352.83954	287.84305	52.83942	-412.89377	619.02307	97.55261	-579.84607	645.64233	79.1582	-343.66702	735.4787	43.72952	-403.88666	631.04425	1577.40466	-503.0184	338.61527	1564.95801	-477.44806	457.49762	1529.43237	-417.77655	493.02823	1580.05029	-542.69006	644.44665	1544.75647	-441.32974	658.86951	1513.76758	-559.94122	327.6395	1527.14539	-423.52737	318.27161	1495.42322	-559.85168	241.75777	1466.59485	-536.59875	182.4359	1474.91858	-483.32275	98.80934	1416.69043	-507.17871	39.75998	1377.89392	-515.14477	79.22892	1319.23547	-466.76419	730.1344	1489.03516	-546.33771	806.50488	1496.17676	-500.76355	883.5025	1450.67212	-526.4187	954.80627	1431.31006	-517.80945	920.32105	1350.47327	-496.17065	-27.37899	1387.78394	-428.42999	-55.17864	1361.97986	-251.65041	-114.58225	1356.58032	-288.35544	1010.99353	1416.68066	-450.08426	1018.3587	1366.3689	-264.89688	1087.00842	1378.33899	-282.7782	305.68426	957.11394	-419.75515	411.42272	977.24394	-442.54505	586.51679	1001.38803	-451.98287	392.47559	550.78024	-467.1207	617.19284	535.75388	-465.18391	376.62051	124.43699	-517.18111	636.97516	127.75385	-499.4406	322.95555	1511.2843	-491.68953	651.65808	1529.26202	-500.63548	59.49445	1348.5647	-490.95448	937.56366	1390.89166	-506.99005
351	3.5	628.48254	1083.71155	-368.85434	374.50574	1076.06397	-367.85889	558.1814	1126.14844	-531.62286	444.80896	1118.79639	-532.33758	340.17828	820.13367	-509.69723	333.63599	666.83966	-479.14066	334.78946	562.77679	-473.92755	450.06287	538.81934	-460.31982	689.71863	956.47931	-427.93405	658.49585	805.58893	-511.34122	674.42273	670.23431	-470.77048	671.55304	551.55499	-458.10419	562.82788	520.02728	-472.18637	374.28143	406.28497	-438.00928	318.19998	369.67932	-527.3905	379.53433	220.22978	-472.36313	331.8613	119.09462	-529.31049	421.32404	129.82443	-505.03259	640.11108	441.1022	-426.60236	689.56445	341.79791	-516.95136	648.36261	228.01509	-455.91727	680.42194	124.63078	-507.86844	593.52154	130.87523	-490.96637	389.01694	96.77998	-597.27344	374.04392	76.48254	-352.80563	287.82971	52.85537	-412.92151	619.06586	97.57687	-579.89246	645.64398	79.16746	-343.69138	735.46448	43.7234	-403.85846	631.01288	1577.41162	-503.05576	338.59384	1564.93689	-477.43451	457.4884	1529.48791	-417.77582	492.98498	1580.04614	-542.68768	644.43042	1544.9082	-441.13068	658.82489	1513.78076	-559.93121	327.59354	1527.18701	-423.43671	318.19827	1495.43091	-559.80194	241.66626	1466.6272	-536.46777	182.40538	1474.89636	-483.23105	98.77876	1416.69604	-507.07669	39.70943	1377.8949	-515.04004	79.24752	1319.21472	-466.65094	730.01752	1489.05066	-546.23584	806.47168	1496.18225	-500.75824	883.47046	1450.67017	-526.39148	954.76251	1431.32996	-517.78272	920.26679	1350.47754	-496.15668	-27.32182	1387.68994	-428.45435	-55.02836	1362.02881	-251.62444	-114.70542	1356.65393	-288.15018	1010.96674	1416.69006	-450.07654	1018.31128	1366.36377	-264.8624	1086.96997	1378.34692	-282.7095	305.64435	957.13319	-419.63889	411.37715	977.25862	-442.4609	586.47033	1001.39284	-451.95266	392.42616	550.79806	-467.12369	617.19046	535.79114	-465.14528	376.59267	124.45953	-517.17154	636.97174	127.75301	-499.4174	322.8959	1511.30896	-491.61932	651.62766	1529.34448	-500.53094	59.47848	1348.55481	-490.84549	937.51465	1390.90375	-506.9697
